Genre:Adventure | Comedy | Romance
Language:English
IMDb:http://www.imdb.com/title/tt1067774/
Source:BluRay-CHD Thanks!

Format : MPEG-4
Format profile : Base Media
Codec ID : isom
File size : 2.20 GiB
Duration : 1h 48mn
Overall bit rate : 2 900 Kbps

Video
ID : 1
Format : AVC
Format/Info : Advanced Video Codec
Format profile : High@L4.1
Format settings, CABAC : Yes
Format settings, ReFrames : 3 frames
Format settings, GOP : N=1
Codec ID : avc1
Codec ID/Info : Advanced Video Coding
Duration : 1h 48mn
Bit rate mode : Variable
Bit rate : 2 500 Kbps
Maximum bit rate : 20.7 Mbps
Width : 1 280 pixels
Height : 688 pixels
Display aspect ratio : 1.860
Frame rate mode : Constant
Frame rate : 23.976 fps
Color space : YUV
Chroma subsampling : 4:2:0
Bit depth : 8 bits
Scan type : Progressive
Bits/(Pixel*Frame) : 0.118
Stream size : 1.87 GiB (85%)
Writing library : x264

Audio
ID : 2
Format : AAC
Format/Info : Advanced Audio Codec
Format version : Version 4
Format profile : LC
Format settings, SBR : No
Codec ID : 40
Duration : 1h 48mn
Bit rate mode : Variable
Bit rate : 430 Kbps
Maximum bit rate : 554 Kbps
Channel(s) : 6 channels
Channel positions : Front: L C R, Side: L R, LFE
Sampling rate : 48.0 KHz
Stream size : 335 MiB (15%)


Plot:
Three young women vacationing in Paris find themselves whisked away to Monte Carlo after one of the girls is mistaken for a British heiress
 
http://www.pix2links.com/images/89343208389769366157.png
 
http://www.pix2links.com/images/40876566343088458956.png
 
http://www.pix2links.com/images/96636214632530389356.png
 
http://www.pix2links.com/images/72597190748527716077.png
 
http://www.pix2links.com/images/67173212189859325156.png